<svg xmlns="http://www.w3.org/2000/svg" width="64" height="64" viewBox="0 0 64 64" role="img" aria-labelledby="title desc">
  <title id="title">GOODLAB Bayer Mosaic G</title>
  <desc id="desc">A bold white G centered on a red green green blue Bayer subpixel mosaic.</desc>
  <rect width="64" height="64" rx="14" fill="#172033"/>
  <g>
    <rect x="9" y="9" width="10" height="10" rx="2" fill="#EF4444"/>
    <rect x="21" y="9" width="10" height="10" rx="2" fill="#22C55E"/>
    <rect x="33" y="9" width="10" height="10" rx="2" fill="#EF4444"/>
    <rect x="45" y="9" width="10" height="10" rx="2" fill="#22C55E"/>
    <rect x="9" y="21" width="10" height="10" rx="2" fill="#22C55E"/>
    <rect x="21" y="21" width="10" height="10" rx="2" fill="#3B82F6"/>
    <rect x="33" y="21" width="10" height="10" rx="2" fill="#22C55E"/>
    <rect x="45" y="21" width="10" height="10" rx="2" fill="#3B82F6"/>
    <rect x="9" y="33" width="10" height="10" rx="2" fill="#EF4444"/>
    <rect x="21" y="33" width="10" height="10" rx="2" fill="#22C55E"/>
    <rect x="33" y="33" width="10" height="10" rx="2" fill="#EF4444"/>
    <rect x="45" y="33" width="10" height="10" rx="2" fill="#22C55E"/>
    <rect x="9" y="45" width="10" height="10" rx="2" fill="#22C55E"/>
    <rect x="21" y="45" width="10" height="10" rx="2" fill="#3B82F6"/>
    <rect x="33" y="45" width="10" height="10" rx="2" fill="#22C55E"/>
    <rect x="45" y="45" width="10" height="10" rx="2" fill="#3B82F6"/>
  </g>
  <path d="M42 20.5C39.2 17.7 35.7 16 32 16c-8.8 0-16 7.2-16 16s7.2 16 16 16c7 0 12.7-4.3 15-10v-5H36" fill="none" stroke="#FFFFFF" stroke-width="8" stroke-linecap="round" stroke-linejoin="round"/>
</svg>
